HIERARCHY
ROOT Hips
{
	OFFSET 0.000000 0.000000 0.000000
	CHANNELS 6 Xposition Yposition Zposition Zrotation Yrotation Xrotation 
	JOINT LowerBack
	{
		OFFSET 0.000000 0.000000 0.000000
		CHANNELS 3 Zrotation Yrotation Xrotation
		JOINT Spine
		{
			OFFSET 0.028270 2.035590 -0.193380
			CHANNELS 3 Zrotation Yrotation Xrotation
			JOINT Spine1
			{
				OFFSET 0.056720 2.048850 -0.042750
				CHANNELS 3 Zrotation Yrotation Xrotation
				JOINT Neck
				{
					OFFSET 0.000000 0.000000 0.000000
					CHANNELS 3 Zrotation Yrotation Xrotation
					JOINT Neck1
					{
						OFFSET -0.054170 1.746240 0.172020
						CHANNELS 3 Zrotation Yrotation Xrotation
						JOINT Head
						{
							OFFSET 0.104070 1.761360 -0.123970
							CHANNELS 3 Zrotation Yrotation Xrotation
							End Site
							{
								OFFSET 0.000000 0.000000 0.000000
							}
						}
					}
				}
				JOINT LeftShoulder
				{
					OFFSET 0.000000 0.000000 0.000000
					CHANNELS 3 Zrotation Yrotation Xrotation
					JOINT LeftArm
					{
						OFFSET 3.362410 1.200890 -0.311210
						CHANNELS 3 Zrotation Yrotation Xrotation
						JOINT LeftForeArm
						{
							OFFSET 4.983000 -0.000000 -0.000000
							CHANNELS 3 Zrotation Yrotation Xrotation
							JOINT LeftHand
							{
								OFFSET 3.483560 -0.000000 -0.000000
								CHANNELS 3 Zrotation Yrotation Xrotation
								JOINT LeftFingerBase
								{
									OFFSET 0.000000 0.000000 0.000000
									CHANNELS 3 Zrotation Yrotation Xrotation
									JOINT LeftHandIndex1
									{
										OFFSET 0.715260 -0.000000 -0.000000
										CHANNELS 3 Zrotation Yrotation Xrotation
										End Site
										{
											OFFSET 0.000000 0.000000 0.000000
										}
									}
								}
								JOINT LThumb
								{
									OFFSET 0.000000 0.000000 0.000000
									CHANNELS 3 Zrotation Yrotation Xrotation
									End Site
									{
										OFFSET 0.000000 0.000000 0.000000
									}
								}
							}
						}
					}
				}
				JOINT RightShoulder
				{
					OFFSET 0.000000 0.000000 0.000000
					CHANNELS 3 Zrotation Yrotation Xrotation
					JOINT RightArm
					{
						OFFSET -3.136600 1.374050 -0.404650
						CHANNELS 3 Zrotation Yrotation Xrotation
						JOINT RightForeArm
						{
							OFFSET -5.241900 -0.000000 -0.000000
							CHANNELS 3 Zrotation Yrotation Xrotation
							JOINT RightHand
							{
								OFFSET -3.444170 -0.000000 -0.000000
								CHANNELS 3 Zrotation Yrotation Xrotation
								JOINT RightFingerBase
								{
									OFFSET 0.000000 0.000000 0.000000
									CHANNELS 3 Zrotation Yrotation Xrotation
									JOINT RightHandIndex1
									{
										OFFSET -0.622530 -0.000000 -0.000000
										CHANNELS 3 Zrotation Yrotation Xrotation
										End Site
										{
											OFFSET 0.000000 0.000000 0.000000
										}
									}
								}
								JOINT RThumb
								{
									OFFSET 0.000000 0.000000 0.000000
									CHANNELS 3 Zrotation Yrotation Xrotation
									End Site
									{
										OFFSET 0.000000 0.000000 0.000000
									}
								}
							}
						}
					}
				}
			}
		}
	}
}
}
MOTION
Frames: 10
Frame Time: 0.008333
1.070383 17.371624 1.283142 -4.735204 -44.438626 22.542536 -3.830906 -4.432529 -9.251340 -1.598856 -4.338011 -4.078836 -8.056919 -4.310608 1.627075 18.406580 -19.558082 -7.613157 -1.795852 -0.140622 0.037785 0.000000 0.000000 0.000000 6.564038 1.760860 0.513374 -66.227180 -3.475045 -2.278587 -2.438611 -42.108510 -0.022519 12.510502 -3.311578 -0.383533 -0.152946 0.157354 0.000000 0.000000 0.000000 0.000000 0.000000 0.000000 0.000000 12.387530 -16.946235 -2.928131 74.801035 4.050854 5.830272 179.732798 75.400509 179.944250 -7.580219 14.277417 -1.010531 0.112534 -0.691682 0.000000 0.000000 0.000000 0.000000 0.000000 0.000000 0.000000 
1.073175 17.373017 1.302429 -5.109280 -43.478500 22.918414 -3.842387 -4.596299 -9.229921 -1.601962 -4.499898 -4.073874 -8.103205 -4.473003 1.601949 18.665063 -19.715876 -7.629596 -1.812320 -0.141308 0.028790 0.000000 0.000000 0.000000 6.782548 1.302310 0.475588 -66.392548 -3.361483 -2.312938 -2.404302 -42.396051 -0.023515 12.599534 -3.324052 -0.388040 -0.151680 0.160583 0.000000 0.000000 0.000000 0.000000 0.000000 0.000000 0.000000 12.741386 -17.214388 -2.902876 74.783172 3.950989 5.781501 179.719052 75.569971 179.945181 -7.615305 14.268927 -1.014520 0.115379 -0.686732 0.000000 0.000000 0.000000 0.000000 0.000000 0.000000 0.000000 
1.076449 17.374679 1.322703 -5.503555 -42.528940 23.317798 -3.817634 -4.750949 -9.225971 -1.597260 -4.656321 -4.072776 -8.146300 -4.630108 1.579730 18.906436 -19.879146 -7.648040 -1.826117 -0.141788 0.019472 0.000000 0.000000 0.000000 6.954669 0.863393 0.437901 -66.528445 -3.300806 -2.310169 -2.374424 -42.626607 -0.024446 12.689733 -3.349607 -0.393945 -0.150445 0.163636 0.000000 0.000000 0.000000 0.000000 0.000000 0.000000 0.000000 13.066437 -17.486335 -2.879837 74.750313 3.805334 5.723883 179.705556 75.723025 179.946054 -7.654686 14.254653 -1.018713 0.118124 -0.681563 0.000000 0.000000 0.000000 0.000000 0.000000 0.000000 0.000000 
1.080042 17.376746 1.343583 -5.912897 -41.605787 23.732941 -3.766285 -4.892097 -9.236198 -1.587237 -4.801918 -4.074843 -8.186414 -4.776500 1.560568 19.133103 -20.048918 -7.667347 -1.837103 -0.142059 0.009984 0.000000 0.000000 0.000000 7.088228 0.446875 0.399870 -66.638176 -3.299873 -2.275711 -2.349299 -42.791222 -0.025297 12.774455 -3.387240 -0.401152 -0.149288 0.166513 0.000000 0.000000 0.000000 0.000000 0.000000 0.000000 0.000000 13.365742 -17.761063 -2.857995 74.705173 3.615457 5.659151 179.692261 75.866727 179.946924 -7.691083 14.236671 -1.022205 0.120652 -0.676197 0.000000 0.000000 0.000000 0.000000 0.000000 0.000000 0.000000 
1.084108 17.378966 1.366142 -6.361696 -40.705100 24.199080 -3.661149 -5.016537 -9.285093 -1.565292 -4.936399 -4.085138 -8.220515 -4.912239 1.547152 19.334489 -20.220389 -7.687561 -1.843198 -0.141991 0.000697 0.000000 0.000000 0.000000 7.167361 0.072442 0.362021 -66.726252 -3.371763 -2.200333 -2.329678 -42.883861 -0.026075 12.851765 -3.431335 -0.408956 -0.148243 0.169232 0.000000 0.000000 0.000000 0.000000 0.000000 0.000000 0.000000 13.618122 -18.031596 -2.839216 74.644284 3.374140 5.586934 179.678771 76.002073 179.947815 -7.716476 14.216972 -1.024004 0.122692 -0.670636 0.000000 0.000000 0.000000 0.000000 0.000000 0.000000 0.000000 
1.088532 17.381629 1.389261 -6.835861 -39.848645 24.688313 -3.527690 -5.120899 -9.353639 -1.537866 -5.053749 -4.100044 -8.250801 -5.031055 1.536735 19.520253 -20.394950 -7.706504 -1.845646 -0.141682 -0.008235 0.000000 0.000000 0.000000 7.213926 -0.271651 0.323924 -66.797610 -3.509188 -2.104033 -2.314827 -42.904444 -0.026757 12.913945 -3.481676 -0.416960 -0.147328 0.171805 0.000000 0.000000 0.000000 0.000000 0.000000 0.000000 0.000000 13.840419 -18.297478 -2.820566 74.572035 3.091331 5.509874 179.665334 76.140967 179.948775 -7.727043 14.198799 -1.023906 0.124265 -0.664936 0.000000 0.000000 0.000000 0.000000 0.000000 0.000000 0.000000 
1.093253 17.384769 1.412922 -7.340136 -39.041465 25.206982 -3.363654 -5.203418 -9.444417 -1.504458 -5.152530 -4.120027 -8.276950 -5.131518 1.530017 19.691269 -20.570218 -7.724536 -1.844254 -0.141110 -0.016949 0.000000 0.000000 0.000000 7.230519 -0.576795 0.286020 -66.856367 -3.718337 -1.988637 -2.304619 -42.851912 -0.027355 12.960346 -3.534331 -0.424762 -0.146595 0.174265 0.000000 0.000000 0.000000 0.000000 0.000000 0.000000 0.000000 14.033518 -18.554967 -2.801896 74.486622 2.771709 5.429477 179.651827 76.289381 179.949829 -7.719631 14.183747 -1.021610 0.125329 -0.659101 0.000000 0.000000 0.000000 0.000000 0.000000 0.000000 0.000000 
1.098466 17.388603 1.436462 -7.874323 -38.293168 25.745008 -3.179831 -5.263004 -9.546997 -1.467984 -5.230589 -4.143340 -8.300663 -5.211349 1.524293 19.853894 -20.744239 -7.740226 -1.840188 -0.140370 -0.025302 0.000000 0.000000 0.000000 7.230444 -0.852721 0.248490 -66.907210 -3.987751 -1.871502 -2.297890 -42.735271 -0.027874 12.988974 -3.587168 -0.432063 -0.146037 0.176642 0.000000 0.000000 0.000000 0.000000 0.000000 0.000000 0.000000 14.209122 -18.800955 -2.781298 74.388542 2.424311 5.347330 179.638454 76.456011 179.950992 -7.693887 14.173887 -1.017218 0.125935 -0.653159 0.000000 0.000000 0.000000 0.000000 0.000000 0.000000 0.000000 
1.104568 17.392795 1.461248 -8.469460 -37.589433 26.344820 -2.934669 -5.298637 -9.685223 -1.418245 -5.291436 -4.175001 -8.318567 -5.274380 1.522594 19.995388 -20.908689 -7.754935 -1.831625 -0.139333 -0.033178 0.000000 0.000000 0.000000 7.192236 -1.074655 0.213025 -66.956885 -4.330431 -1.741604 -2.294959 -42.555262 -0.028353 13.006986 -3.635227 -0.438462 -0.145696 0.178998 0.000000 0.000000 0.000000 0.000000 0.000000 0.000000 0.000000 14.344381 -19.026263 -2.761148 74.269980 2.050449 5.264759 179.624767 76.642312 179.952244 -7.649121 14.170038 -1.010730 0.125971 -0.647093 0.000000 0.000000 0.000000 0.000000 0.000000 0.000000 0.000000 
1.111604 17.397871 1.485377 -9.101422 -36.949062 26.962957 -2.670303 -5.311688 -9.825008 -1.365855 -5.332082 -4.208302 -8.335835 -5.317150 1.519347 20.134776 -21.064509 -7.766761 -1.822084 -0.138253 -0.040741 0.000000 0.000000 0.000000 7.150194 -1.270913 0.179170 -67.007740 -4.721144 -1.629976 -2.293549 -42.329649 -0.028798 13.014698 -3.680377 -0.444162 -0.145557 0.181361 0.000000 0.000000 0.000000 0.000000 0.000000 0.000000 0.000000 14.475354 -19.232057 -2.737575 74.134416 1.668984 5.183718 179.611433 76.857221 179.953586 -7.589965 14.172266 -1.002643 0.125711 -0.640940 0.000000 0.000000 0.000000 0.000000 0.000000 0.000000 0.000000 
